# xmcd
#
# Track frame offsets:
#	150
#	20355
#	42210
#	59375
#	86925
#	112570
#	134992
#	166820
#	185005
#	212707
#	228810
#	245330
#	267662
#	282280
#	299725
#
# Disc length: 4247
#
# Revision: 2
# Processed by: cddbd v1.5.1PL0 Copyright (c) Steve Scherf et al.
# Submitted via: EasyCDDAExtractor 7.1.2.1
# Normalized: r1:DSETVAR1
#
DISCID=e210950f
DTITLE=Various Artist - FFRR Classics 1988-1998 CD2
DYEAR=1998
DGENRE=Dance
TTITLE0=Salt 'n' Pepa - Push It (Radio Version)
TTITLE1=Diana Brown - The Masterplan (Ext. Version)
TTITLE2=D-Mob - C'mon And Get My Love (Radio Version)
TTITLE3=Nightwriters - Let The Music Use You (Original)
TTITLE4=Richie Rich - You Used To Salsa (The Remix Of Richie Rich's Salsa House (feat. Ralph Rosario))
TTITLE5=Orbital - Chime (Original Edit)
TTITLE6=Lil Louis - French Kiss (Original)
TTITLE7=DSK - What Would We Do (Original Mix)
TTITLE8=Degrees Of Motion - Shine On (Original 12" Mix)
TTITLE9=Nightcrawlers - Push The Feeling On (The Dub Of Doom - Short)
TTITLE10=Utah Saints - What Can You Do For Me (Radio Edit)
TTITLE11=Zero B - Lock Up (Monolith Mix)
TTITLE12=JX - Son Of A Gun (Radio Edit)
TTITLE13=Rest Assured - Treat Infamy (Alternative 7-inch Mix)
TTITLE14=Various Artist - Saturday Night, Sunday Morning (T-Emp Radio Mix)
EXTD=
EXTT0=
EXTT1=
EXTT2=
EXTT3=
EXTT4=
EXTT5=
EXTT6=
EXTT7=
EXTT8=
EXTT9=
EXTT10=
EXTT11=
EXTT12=
EXTT13=
EXTT14=
PLAYORDER=
